# xmcd
#
# Track frame offsets:
#	150
#	9195
#	21042
#	38197
#	49080
#	61562
#	75100
#	83535
#	93077
#	105920
#	115322
#
# Disc length: 1654 seconds
#
# Revision: 1
# Processed by: cddbd v1.4PL0 Copyright (c) Steve Scherf et al.
# Submitted via: EasyCDDAExtractor 6.2.0.3
#
DISCID=6006740b
DTITLE=Irwin Goodman - Irwinismi
DYEAR=2001
DGENRE=Country
TTITLE0=Työmiehen lauantai
TTITLE1=Tyydyn kohtaloon
TTITLE2=Aurinko, tähdet ja kuu
TTITLE3=En kerro kuinka jouduin naimisiin
TTITLE4=Marcello Magaroni
TTITLE5=Kalteritango
TTITLE6=Autolla Kanarian saarille
TTITLE7=Miehen kylkiluu
TTITLE8=Virkamies Virtanen
TTITLE9=Katkera matka
TTITLE10=Kuin Ferrari
EXTD=Digital remaster
EXTT0=
EXTT1=
EXTT2=
EXTT3=
EXTT4=
EXTT5=
EXTT6=
EXTT7=
EXTT8=
EXTT9=
EXTT10=
PLAYORDER=
